<svg xmlns="http://www.w3.org/2000/svg" width="20" height="20" viewBox="0 0 20 20" fill="none">
  <path d="M1.63109 0.122078C0.737594 -0.324422 -0.251406 0.528078 0.0580936 1.47758L2.06509 7.63008C2.12186 7.80389 2.22519 7.95882 2.36386 8.078C2.50253 8.19719 2.67122 8.27607 2.85159 8.30608L10.7816 9.62758C11.1991 9.69758 11.1991 10.2976 10.7816 10.3676L2.85209 11.6891C2.67172 11.7191 2.50303 11.798 2.36436 11.9172C2.22569 12.0363 2.12236 12.1913 2.06559 12.3651L0.0580936 18.5211C-0.251906 19.4711 0.737594 20.3236 1.63109 19.8771L19.3781 11.0061C20.2076 10.5911 20.2076 9.40758 19.3781 8.99308L1.63109 0.122078Z" fill="#ABABAB"/>
</svg>